<svg xmlns="http://www.w3.org/2000/svg" viewBox="0 0 32 32" fill="none">
  <rect width="32" height="32" rx="8" fill="#1a1a2e"/>
  <path d="M9 12.5C9 10.567 10.567 9 12.5 9h7C21.433 9 23 10.567 23 12.5c0 1.516-.9 2.823-2.2 3.42l.2.08C22.267 16.6 23 17.72 23 19c0 2.209-1.791 4-4 4h-7.5C10.343 23 9 21.657 9 20.1V20" stroke="#3b6bef" stroke-width="2" stroke-linecap="round"/>
  <path d="M9 20c0-.552.448-1 1-1h9a2 2 0 0 0 0-4H13a2 2 0 0 1 0-4h7" stroke="#3b6bef" stroke-width="2" stroke-linecap="round"/>
</svg>
